<?xml version="1.0" standalone="no"?>
<!DOCTYPE svg PUBLIC "-//W3C//DTD SVG 20010904//EN"
 "http://www.w3.org/TR/2001/REC-SVG-20010904/DTD/svg10.dtd">
<svg version="1.0" xmlns="http://www.w3.org/2000/svg"
 width="500.000000pt" height="500.000000pt" viewBox="0 0 500.000000 500.000000"
 preserveAspectRatio="xMidYMid meet">

<g transform="translate(0.000000,500.000000) scale(0.100000,-0.100000)"
fill="#000000" stroke="none">
<path d="M1295 2820 c-3 -6 -53 -125 -110 -265 l-104 -256 66 3 65 3 20 53 19
52 98 0 98 0 20 -52 20 -53 66 -3 65 -3 -103 256 c-57 140 -107 260 -110 265
-8 13 -102 13 -110 0z m87 -237 l25 -68 -29 -3 c-15 -2 -41 -2 -56 0 l-29 3
25 68 c14 37 28 67 32 67 4 0 18 -30 32 -67z"/>
<path d="M2180 2810 c-43 -43 -14 -110 48 -110 57 0 82 68 39 108 -29 27 -61
28 -87 2z"/>
<path d="M1947 2743 c-4 -3 -7 -30 -7 -60 0 -46 -2 -53 -20 -53 -17 0 -20 -7
-20 -45 0 -37 3 -45 19 -45 16 0 19 -11 24 -83 3 -46 11 -96 18 -111 22 -48
92 -70 153 -46 24 9 25 10 13 52 -11 35 -17 43 -37 43 -24 0 -25 3 -28 73 l-3
72 36 0 36 0 -3 43 c-3 39 -5 42 -35 45 l-33 3 0 60 0 59 -53 0 c-30 0 -57 -3
-60 -7z"/>
<path d="M2780 2525 l0 -225 30 0 29 0 3 98 3 97 87 5 c92 5 116 17 144 72 29
56 8 124 -49 158 -26 17 -51 20 -139 20 l-108 0 0 -225z m225 145 c9 -10 18
-31 18 -45 0 -49 -28 -65 -110 -65 l-73 0 0 65 0 65 73 0 c61 0 77 -4 92 -20z"/>
<path d="M700 2708 c-67 -18 -68 -27 -16 -116 56 -96 66 -106 90 -89 18 13 53
175 43 202 -7 17 -61 19 -117 3z"/>
<path d="M1725 2625 c-22 -8 -57 -32 -77 -53 -121 -130 18 -322 197 -272 50
14 52 18 29 61 -14 28 -18 30 -55 24 -34 -6 -42 -3 -69 23 -36 36 -38 69 -8
107 19 24 26 27 69 23 45 -5 47 -4 63 30 20 41 14 50 -40 63 -51 11 -61 11
-109 -6z"/>
<path d="M2170 2465 l0 -165 55 0 55 0 0 165 0 165 -55 0 -55 0 0 -165z"/>
<path d="M2300 2623 c0 -5 38 -78 84 -163 l84 -155 39 -3 40 -3 84 158 c46 87
86 161 87 166 2 4 -27 7 -64 5 l-68 -3 -35 -82 c-20 -46 -39 -83 -42 -83 -3 0
-23 38 -44 85 l-38 85 -63 0 c-35 0 -64 -3 -64 -7z"/>
<path d="M905 2535 c-98 -109 -83 -128 78 -98 82 15 87 18 82 42 -8 44 -66
131 -86 131 -4 0 -37 -34 -74 -75z"/>
<path d="M3202 2593 c-19 -9 -44 -35 -59 -60 -61 -105 10 -238 127 -238 32 0
54 6 67 18 24 21 33 22 33 2 0 -10 10 -15 30 -15 l31 0 -3 152 c-3 142 -4 153
-22 156 -11 3 -25 -3 -32 -12 -10 -15 -14 -15 -40 -1 -38 19 -91 19 -132 -2z
m103 -45 c58 -26 73 -115 29 -167 -45 -54 -121 -36 -144 34 -16 47 -5 89 32
120 33 28 46 30 83 13z"/>
<path d="M3509 2587 c-27 -18 -35 -30 -37 -61 -4 -49 16 -72 82 -91 66 -20 79
-28 74 -51 -6 -31 -53 -41 -92 -20 -33 17 -76 15 -76 -4 0 -16 61 -59 93 -65
67 -13 137 36 137 95 0 47 -19 64 -98 91 -47 16 -62 25 -62 40 0 31 47 44 79
22 22 -15 58 -19 69 -8 9 8 -22 46 -48 60 -41 21 -82 19 -121 -8z"/>
<path d="M3773 2591 c-56 -35 -57 -108 -1 -137 17 -9 50 -22 72 -28 43 -13 57
-36 36 -61 -17 -21 -66 -19 -88 3 -14 14 -23 16 -40 9 -29 -13 -28 -31 4 -56
74 -58 204 -11 204 74 0 27 -54 73 -101 85 -73 20 -92 52 -42 71 22 8 32 6 54
-10 28 -21 69 -19 69 3 0 7 -11 23 -24 35 -35 33 -101 38 -143 12z"/>
<path d="M490 2516 c-15 -41 -22 -95 -16 -121 6 -24 10 -26 49 -20 23 4 72 15
107 24 50 14 66 23 68 38 2 16 -13 28 -77 61 -93 48 -118 52 -131 18z"/>
<path d="M732 2448 c-27 -27 -3 -88 34 -88 26 0 56 39 48 63 -4 12 -12 25 -18
29 -17 12 -51 9 -64 -4z"/>
<path d="M660 2270 c-64 -62 -70 -71 -60 -90 12 -23 102 -70 133 -70 23 0 26
9 36 115 13 140 -6 147 -109 45z"/>
<path d="M860 2317 c0 -14 88 -154 149 -240 19 -26 42 -47 51 -47 20 0 105 82
125 120 18 35 23 31 -142 114 -129 64 -183 80 -183 53z"/>
</g>
</svg>
