<?xml version="1.0" standalone="no"?>
<!DOCTYPE svg PUBLIC "-//W3C//DTD SVG 20010904//EN"
 "http://www.w3.org/TR/2001/REC-SVG-20010904/DTD/svg10.dtd">
<svg version="1.0" xmlns="http://www.w3.org/2000/svg"
 width="182.000000pt" height="182.000000pt" viewBox="0 0 182.000000 182.000000"
 preserveAspectRatio="xMidYMid meet">
<metadata>
Created by potrace 1.14, written by Peter Selinger 2001-2017
</metadata>
<g transform="translate(0.000000,182.000000) scale(0.100000,-0.100000)"
fill="#000000" stroke="none">
<path d="M725 1580 c-3 -5 -17 -8 -31 -6 -13 3 -24 0 -24 -6 0 -5 -7 -8 -15
-4 -8 3 -15 1 -15 -4 0 -5 -9 -7 -20 -5 -11 2 -20 0 -20 -4 0 -5 -14 -14 -30
-21 -17 -7 -28 -15 -25 -18 2 -3 -1 -12 -8 -20 -9 -12 -9 -16 1 -19 6 -3 12
-16 12 -29 0 -14 7 -27 15 -30 8 -4 15 -13 15 -22 0 -8 6 -23 14 -31 8 -9 16
-23 18 -31 2 -8 11 -23 21 -34 9 -11 17 -26 17 -33 0 -7 4 -13 8 -13 5 0 19
-20 31 -45 12 -25 27 -45 32 -45 5 0 9 -7 9 -16 0 -8 4 -13 9 -10 5 3 12 -1
15 -9 4 -13 10 -14 26 -5 11 6 25 8 30 5 6 -3 10 1 10 10 0 9 4 14 9 10 12 -7
25 31 15 46 -5 8 -3 9 5 4 9 -5 12 -1 11 11 -1 11 -1 21 0 24 1 3 3 16 6 30
11 66 13 77 19 100 6 24 16 109 17 140 1 8 6 18 12 22 7 5 7 8 -2 8 -7 0 -10
5 -7 10 7 12 -20 42 -29 33 -3 -4 -6 -2 -6 3 0 5 -25 10 -55 9 -30 0 -55 -4
-55 -9 0 -4 -6 -3 -14 3 -10 8 -16 9 -21 1z"/>
<path d="M1210 1349 c0 -5 -3 -8 -7 -7 -14 5 -62 -45 -56 -56 3 -6 3 -8 -2 -4
-9 8 -28 -10 -38 -35 -4 -10 -11 -15 -17 -12 -5 3 -10 1 -10 -5 0 -6 -16 -26
-36 -45 -20 -19 -33 -35 -29 -35 3 0 0 -7 -9 -15 -8 -8 -19 -15 -25 -15 -6 0
-11 -7 -11 -15 0 -8 -9 -20 -20 -27 -13 -9 -20 -24 -20 -46 0 -61 28 -72 150
-57 30 3 63 7 73 8 9 1 17 5 17 9 0 4 14 6 30 4 17 -2 33 0 36 5 2 4 11 6 19
2 8 -3 15 -1 15 4 0 5 12 8 28 7 15 -1 33 4 41 10 12 9 13 8 6 -4 -8 -13 -7
-13 8 -1 9 7 17 10 17 6 0 -4 9 3 19 16 14 17 16 28 9 37 -7 8 -7 12 2 12 9 0
9 4 -1 17 -12 14 -12 16 1 9 9 -4 8 -2 -2 7 -10 8 -15 17 -11 20 3 4 1 13 -5
20 -7 8 -9 17 -5 20 3 4 1 7 -5 7 -10 0 -28 38 -24 53 1 4 -2 7 -7 7 -6 0 -19
17 -31 38 -12 21 -31 44 -42 51 -27 17 -58 22 -58 10z"/>
<path d="M254 1219 c-10 -4 -15 -8 -10 -8 5 -1 3 -8 -4 -16 -7 -8 -9 -15 -4
-15 5 0 3 -4 -4 -8 -12 -8 -18 -26 -27 -87 -9 -54 -10 -60 -19 -74 -6 -10 -5
-12 3 -7 15 10 11 -25 -4 -36 -6 -5 -6 -8 1 -8 7 0 9 -11 6 -25 -2 -15 0 -25
7 -25 6 0 11 -5 11 -11 0 -5 -6 -7 -12 -4 -7 4 -4 -1 6 -9 19 -15 39 -21 61
-16 5 1 21 3 35 5 14 1 25 4 25 5 0 2 25 7 60 12 11 2 25 7 32 11 6 4 23 8 37
9 14 1 26 7 26 13 0 5 4 4 9 -4 6 -9 11 -10 15 -2 4 6 12 9 17 6 5 -4 9 -2 9
3 0 5 10 8 22 7 12 -1 33 4 47 11 13 7 29 10 34 7 6 -3 7 -1 3 5 -4 7 -3 12 2
12 6 0 15 14 21 30 6 18 6 30 0 30 -5 0 -8 3 -6 8 4 12 -38 49 -51 44 -7 -2
-12 1 -12 8 0 6 -4 8 -10 5 -5 -3 -10 -1 -10 5 0 6 -4 8 -10 5 -5 -3 -10 -1
-10 5 0 6 -4 9 -8 6 -5 -3 -19 4 -30 15 -12 11 -22 17 -22 14 0 -3 -10 0 -22
7 -13 7 -26 11 -30 10 -5 -1 -8 3 -8 8 0 6 -3 10 -7 9 -16 -2 -53 14 -53 22 0
5 -9 9 -20 9 -11 0 -20 4 -20 8 0 10 -50 11 -76 1z"/>
<path d="M750 1052 c-19 -6 -60 -43 -60 -54 0 -5 5 -6 12 -2 7 5 8 3 3 -7 -12
-18 -14 -79 -4 -79 5 0 9 -6 9 -14 0 -8 9 -18 20 -21 11 -3 20 -10 20 -14 0
-12 66 -7 82 6 8 7 17 10 20 7 10 -10 48 62 43 84 -2 12 1 22 6 22 6 0 7 5 4
10 -4 6 -11 7 -17 4 -6 -4 -8 -2 -5 3 13 21 -29 53 -74 56 -24 2 -51 2 -59 -1z"/>
<path d="M720 807 c0 -4 -4 -6 -9 -2 -6 3 -15 -4 -21 -15 -6 -11 -18 -20 -27
-20 -9 0 -14 -3 -10 -6 7 -7 -29 -44 -44 -44 -5 0 -8 -4 -5 -8 5 -8 -29 -43
-36 -37 -1 2 -9 -3 -16 -11 -7 -8 -10 -14 -7 -14 3 0 -6 -12 -22 -27 -15 -16
-30 -27 -33 -26 -3 0 -11 -5 -18 -13 -7 -8 -10 -14 -6 -14 4 0 0 -8 -8 -17
-24 -28 -29 -53 -13 -59 8 -3 17 -14 20 -25 4 -10 13 -19 21 -19 8 0 14 -4 14
-9 0 -6 27 -23 60 -39 33 -16 57 -32 53 -37 -5 -4 2 -4 15 -1 12 4 22 4 22 -1
0 -5 8 -9 18 -10 9 -1 28 -3 42 -6 24 -4 72 14 71 27 -1 3 -1 7 0 9 4 13 11
92 13 129 0 27 3 48 6 48 3 0 6 15 7 33 1 17 3 61 5 97 2 36 7 72 12 80 5 8 6
12 1 8 -5 -5 -13 2 -19 14 -8 15 -21 22 -48 23 -21 0 -38 -3 -38 -8z"/>
<path d="M1004 795 c-3 -8 -10 -13 -14 -10 -4 3 -10 -2 -14 -10 -3 -8 -1 -15
5 -15 6 0 7 -5 4 -10 -4 -6 -1 -18 7 -27 9 -12 9 -15 1 -9 -9 5 -11 2 -7 -8 3
-9 12 -16 20 -16 8 0 13 -3 12 -7 -4 -14 13 -53 23 -53 5 0 9 -7 9 -15 0 -8 5
-15 10 -15 6 0 10 -7 10 -15 0 -8 5 -15 10 -15 6 0 10 -6 10 -13 0 -7 9 -23
20 -35 12 -12 17 -22 13 -22 -4 0 0 -5 10 -11 9 -6 15 -14 12 -20 -4 -5 -1 -9
5 -9 6 0 9 -4 6 -9 -4 -5 -3 -11 2 -13 11 -4 72 -97 72 -109 0 -5 5 -9 10 -9
6 0 10 -9 10 -20 0 -11 6 -19 13 -18 6 2 11 -3 9 -10 -1 -6 2 -12 8 -12 5 0
10 -5 10 -11 0 -7 13 -24 29 -40 16 -15 27 -30 23 -33 -3 -3 11 -6 31 -6 24 0
43 7 57 22 11 12 20 18 20 14 0 -5 9 3 21 18 11 14 26 23 32 19 7 -3 9 -3 6 1
-4 4 12 26 35 50 22 24 49 53 60 66 45 56 77 130 55 130 -5 0 -8 4 -7 9 2 5
-1 9 -6 9 -5 0 -12 4 -15 9 -10 14 -91 55 -91 46 0 -4 -5 -1 -10 7 -5 8 -13
15 -17 15 -4 1 -32 13 -60 28 -29 15 -53 24 -53 20 0 -5 -4 -3 -8 3 -8 13 -94
59 -104 56 -5 -1 -8 3 -8 9 0 6 -7 9 -15 5 -8 -3 -15 -2 -15 2 0 8 -101 57
-112 54 -5 -1 -8 2 -8 7 0 8 -37 24 -52 22 -5 -1 -8 3 -8 7 0 15 -60 13 -66
-3z"/>
</g>
</svg>
